<?xml version="1.0" encoding="UTF-8"?>
<svg id="Layer_1" xmlns="http://www.w3.org/2000/svg" version="1.1" viewBox="0 0 720 337.42">
  <!-- Generator: Adobe Illustrator 29.4.0, SVG Export Plug-In . SVG Version: 2.1.0 Build 152)  -->
  <defs>
    <style>
      .st0 {
        fill: #edc8f9;
      }

      .st1 {
        fill: #ab1cd9;
      }

      .st2 {
        display: none;
        fill: #51006c;
      }
    </style>
  </defs>
  <path id="path1284-2-2" class="st2" d="M585.28,4.72h0v.02c-1.81-.01-3.6,0-5.38,0-2.04.02-4.07.05-6.08.09h-.02c-16.19.37-32.03,1.68-47.55,3.44-4.39.5-8.51,1.08-12.42,1.59,0,0,0,0-.01,0-16.63,2.07-29.78,17.26-28.32,32.66,0,.05.02.09.03.13-.03.3-.06.6-.08.89-.42-.04-.83-.1-1.25-.1-2.83,0-5.69.43-8.47,1.3-10.24,3.18-17.37,11.93-19.39,21.91-3.16-.93-6.49-1.41-9.94-1.15h-.03s-.02,0-.02,0c-6.24.48-11.86,3.08-16.34,6.95-6.14-7.03-13.33-13.12-21.34-18.01h0c-14.01-8.53-30.13-12.38-46.23-12.25-17.26.14-34.89,5.04-50.37,14.21-6.1-8.01-16.32-13.14-26.79-13.13-3.29,0-6.62.4-9.97,1.15l-.22.05-.22.05c-36.36,9.1-93.38,24.61-129.27,34.89-17.96,5.11-35.82,10.42-53.61,15.82h-.01c-17.83,5.42-35.59,10.98-53.48,16.88-12.74,4.17-20.65,16.9-19.49,29.81,0,.06,0,.13-.01.19,0,.06,0,.12-.01.18-.06.74-.09,1.49-.09,2.24,0,.02,0,.03,0,.04,0,.38.04.76.05,1.14-.04.77-.04,1.54-.01,2.32-.05,1.01-.06,2.03,0,3.06-.01.35-.04.69-.04,1.04,0,.02,0,.03,0,.04,0,.76.04,1.52.11,2.28,0,.04,0,.08,0,.12-.32,3.56.02,7.22,1.13,10.8v.02s.01.02.01.02c4.49,14.39,19.88,22.84,34.34,19.13l.36-.06,1.12-.35c11.89-3.71,24.01-7.24,36.1-10.77-.39,3.46-.76,6.94-1.1,10.47v.09s-.02.09-.02.09c-.24,2.88-.51,5.92-.72,9.06,0,.02,0,.04,0,.06-.26,3.12-.49,6.25-.68,9.39v.02s0,.02,0,.02c-.35,6.05-.71,12.17-.99,18.39-.27,6.14-.5,12.26-.7,18.38v.03l-.27,9.27v.07c-.06,2.89-.18,5.94-.22,9.58v.09s0,.53,0,.53c0,.61.02,1.22.06,1.82-.02.87-.04,1.68-.05,2.62v.09s0,.53,0,.53c0,.3.02.6.03.9,0,.35-.02.65-.02,1.01v.09s0,.53,0,.53c0,.28.02.55.02.83,0,.36-.02.69-.02,1.08v.09s0,.53,0,.53c0,.28.02.57.03.85,0,.35-.02.68-.02,1.06v.09s0,.53,0,.53c0,.63.02,1.26.06,1.89-.02.84-.04,1.64-.05,2.55v.09s0,.53,0,.53c0,2.79.34,5.57.99,8.28v.05s.02.05.02.05c4.55,18.44,23.62,29.98,42.07,25.46h.02c23.49-2.57,40.33-28.53,54.62-46.81l-.29.38.38-.48,5.6-7.57.02-.02c2.1-2.72,3.85-5.17,5.39-7.14l.04-.06.04-.05c3.8-4.94,7.58-9.84,11.38-14.65l.02-.02v-.02c1.47-1.86,2.98-3.66,4.45-5.51l59.24,102.87.08.13c.41.69,1.02,1.71,1.94,2.99,12.26,17.07,36.57,21.08,53.66,8.84h.01s0-.01,0-.01c11.11-7.97,16.69-21.05,15.86-33.92,0-.08,0-.16.01-.24.05-.8.07-1.6.07-2.41h0c0-.39-.03-.77-.04-1.15.03-.79.03-1.58,0-2.37.04-.98.03-1.97,0-2.95.01-.37.03-.75.03-1.12h0c0-.82-.03-1.63-.08-2.44.56-8.57-1.69-17.37-7.01-24.8l-31.08-43.35c10.85,7.4,23.25,12.42,36.3,14.56,9.24,1.59,18.61,1.62,27.8.42l.75,1.29,38.99,67.34.03.05c.91,1.54,1.89,3.02,3.15,4.61l.02.03.02.03c13.16,16.45,37.68,19.17,54.12,5.99,10.11-8.09,15.02-20.47,14.25-32.63.01-.17.01-.33.02-.5,0,0,0,0,0,0,0,0,0,0,0-.01.04-.76.06-1.51.05-2.27,0-.36-.02-.73-.03-1.09.02-.78.03-1.56,0-2.34.04-.98.04-1.96,0-2.94.01-.41.03-.82.03-1.23,0-.79-.02-1.58-.07-2.37.59-9.26-2.08-18.74-8.23-26.45h0s-37.33-46.66-37.33-46.66c.27-.37.55-.73.81-1.1v-.02s.03-.02.03-.02c3.29-4.76,6.13-9.85,8.53-15.17.97.88,1.92,1.77,3.03,2.6,3.61,2.7,7.66,4.78,12.25,6.11,4.59,1.36,8.98,1.71,13.06,1.49,1.13-.04,2.26-.13,3.32-.28.74-.09,1.74-.26,2.78-.47,2.93-.55,5.48-1.43,7.77-2.46,4.89-2.21,8.76-5.2,11.88-8.54,5.76,7.49,15.07,12.11,25.01,11.28,1.81-.15,3.56-.51,5.26-1,6.7,11.7,20.53,18.44,34.23,15.34l-.75.17h.36l2.24-.6c2.29-.62,4.2-1.17,6.17-1.74l.08-.02,5.78-1.74.09-.03c3.88-1.21,7.7-2.46,11.5-3.75h.02s.02-.02.02-.02c7.67-2.63,15.28-5.48,22.84-8.58h.02s.02-.02.02-.02c15.03-6.2,30.34-13.46,45.28-23.17l.04-.02.04-.02c7.43-4.88,15.11-10.57,22.43-17.74l.03-.03.03-.02c7.21-7.12,14.86-16.42,19.91-28.69v-.02s.02-.02.02-.02c2.64-6.46,4.3-13.48,4.71-20.85.14-2.2.13-4.29.05-6.28,0-.09,0-.17,0-.26.03-.79.05-1.57.05-2.33,0-.35-.02-.69-.02-1.04.02-.9.02-1.78,0-2.64.02-.9.02-1.79,0-2.66.01-.42.03-.85.02-1.26,0-.84-.01-1.67-.05-2.47.15-3.52-.03-6.78-.36-9.72v-.06s-.02-.06-.02-.06c-.26-2.28-.6-3.87-.76-4.8l-.1-.61-1.07-4.4-.07-.26c-1.71-6.22-4.27-12.32-7.74-18.07-3.48-5.78-7.68-10.86-12.31-15.24h-.01s-.01-.02-.01-.02c-9.27-8.73-19.61-14.07-28.87-17.78l-.14-.05-.14-.05c-4.73-1.81-9.38-3.24-13.87-4.44l-.11-.03-.11-.03c-4.47-1.14-8.97-2.1-13.51-2.87-13.45-2.25-26.5-3.05-39.12-3.14h0Z"/>
  <path id="path1284" class="st0" d="M583.99,4.71h0c-1.81,0-3.6,0-5.38.01h0c-2.04.02-4.07.05-6.08.09h-.02c-16.19.37-32.03,1.68-47.55,3.44-4.39.5-8.51,1.08-12.42,1.59,0,0,0,0-.01,0-16.63,2.07-29.78,17.26-28.32,32.66.03.36.18.69.23,1.05-.51-.03-1.02-.12-1.53-.12-2.83,0-5.69.43-8.47,1.3-10.24,3.18-17.37,11.93-19.39,21.91-3.16-.93-6.49-1.41-9.94-1.15h-.03s-.02,0-.02,0c-6.24.48-11.86,3.08-16.34,6.95-6.14-7.03-13.33-13.12-21.34-18.01h0c-14.01-8.53-30.13-12.38-46.23-12.25-17.26.14-34.89,5.04-50.37,14.21-6.1-8.01-16.32-13.14-26.79-13.13-3.29,0-6.62.4-9.97,1.15l-.22.05-.22.05c-36.36,9.1-93.38,24.61-129.27,34.89-17.96,5.11-35.82,10.42-53.61,15.82h-.01c-17.83,5.42-35.59,10.98-53.48,16.88-14.63,4.79-22.9,20.87-18.36,35.54v.02s.01.02.01.02c4.49,14.39,19.88,22.84,34.34,19.13l.36-.06,1.12-.35c12.6-3.93,25.45-7.66,38.26-11.41-1.17,9.53-2.33,19.03-3.26,28.82v.09s-.02.09-.02.09c-.24,2.88-.51,5.92-.72,9.06,0,.02,0,.04,0,.06-.26,3.12-.49,6.25-.68,9.39v.02s0,.02,0,.02c-.35,6.05-.71,12.17-.99,18.39-.27,6.14-.5,12.26-.7,18.38v.03l-.27,9.27v.07c-.06,2.89-.18,5.94-.22,9.58v.09s0,.53,0,.53c0,2.79.34,5.57.99,8.28v.05s.02.05.02.05c4.55,18.44,23.62,29.98,42.07,25.46h.02c23.49-2.57,40.33-28.53,54.62-46.81l-.29.38.38-.48,5.6-7.57.02-.02c2.1-2.72,3.85-5.17,5.39-7.14l.04-.06.04-.05c3.8-4.94,7.58-9.84,11.38-14.65l.02-.02v-.02c1.47-1.86,2.98-3.66,4.45-5.51l59.24,102.87.08.13c.41.69,1.02,1.71,1.94,2.99,12.26,17.07,36.57,21.08,53.66,8.84h.01s0-.01,0-.01c17.08-12.26,21.1-36.57,8.85-53.68h0s-49.51-69.07-49.51-69.07c1.66-1.06,3.17-2.29,4.57-3.66,13.46,13.85,31.13,23.09,50.16,26.21,9.24,1.59,18.61,1.62,27.8.42l.75,1.29,38.99,67.34.03.05c.91,1.54,1.89,3.02,3.15,4.61l.02.03.02.03c13.16,16.45,37.68,19.17,54.12,5.99,16.45-13.15,19.14-37.67,6.02-54.1h0s-44.5-55.62-44.5-55.62c2.84-3.11,5.54-6.36,7.97-9.86v-.02s.03-.02.03-.02c3.29-4.76,6.13-9.85,8.53-15.17.97.88,1.92,1.77,3.03,2.6,3.61,2.7,7.66,4.78,12.25,6.11,4.59,1.36,8.98,1.71,13.06,1.49,1.13-.04,2.26-.13,3.32-.28.74-.09,1.74-.26,2.78-.47,2.93-.55,5.48-1.43,7.77-2.46,4.89-2.21,8.76-5.2,11.88-8.54,5.76,7.49,15.07,12.11,25.01,11.28,1.81-.15,3.56-.51,5.26-1,6.7,11.7,20.53,18.44,34.23,15.34l-.75.17h.36l2.24-.6c2.29-.62,4.2-1.17,6.17-1.74l.08-.02,5.78-1.74.09-.03c3.88-1.21,7.7-2.46,11.5-3.75h.02s.02-.02.02-.02c7.67-2.63,15.28-5.48,22.84-8.58h.02s.02-.02.02-.02c15.03-6.2,30.34-13.46,45.28-23.17l.04-.02.04-.02c7.43-4.88,15.11-10.57,22.43-17.74l.03-.03.03-.02c7.21-7.12,14.86-16.41,19.91-28.69v-.02s.02-.02.02-.02c2.64-6.46,4.3-13.48,4.71-20.85.26-3.99.05-7.66-.31-10.93v-.06s-.02-.05-.02-.05c-.26-2.28-.6-3.87-.76-4.8l-.1-.61-1.07-4.41-.07-.26c-1.71-6.22-4.27-12.32-7.74-18.07-3.48-5.78-7.68-10.86-12.31-15.24h-.01s-.01-.02-.01-.02c-9.27-8.74-19.61-14.07-28.87-17.78l-.14-.05-.14-.05c-4.73-1.81-9.38-3.24-13.87-4.44l-.11-.03-.11-.03c-4.47-1.14-8.97-2.1-13.51-2.87h0c-13.45-2.25-26.5-3.05-39.12-3.14h0Z"/>
  <path id="path1215" class="st1" d="M583.88,22.21c-1.71-.01-3.42-.01-5.12,0-1.95.02-3.89.05-5.83.09-15.51.36-30.82,1.62-45.98,3.33-4.09.46-8.16,1.04-12.23,1.56-18.65,2.32-17.02,25.95,2.88,23.9,3.96-.45,7.93-.95,11.89-1.33,14.67-1.43,29.33-2.39,43.83-2.48,14.48-.09,28.89.63,42.42,3.14,3.37.62,6.68,1.4,9.88,2.26,3.19.9,6.29,1.93,9.23,3.11,5.81,2.43,11.02,5.44,14.77,9.16,3.78,3.72,6.23,7.97,7.54,13l.44,1.92c.05.56.18,1.12.23,1.67.08,1.11.14,2.19.03,3.28-.16,2.15-.67,4.33-1.63,6.57-1.92,4.48-5.5,9.14-10.05,13.45-4.54,4.3-9.95,8.28-15.73,11.93-11.6,7.29-24.62,13.33-37.99,18.58-6.69,2.62-13.5,5.04-20.38,7.28-1.58.51-3.14,1-4.72,1.5l-10.64-80.67c-.59-4.43-4.41-7.83-8.99-7.74-4.94.07-8.86,4.12-8.79,9.06l1.55,99.13c.01.93.12,1.95.34,2.88,1.7,7.51,9.17,12.22,16.68,10.52l1.15-.26h.01c2.14-.58,3.91-1.08,5.84-1.64l5.61-1.69c3.73-1.17,7.42-2.37,11.09-3.62,7.36-2.52,14.65-5.25,21.88-8.21,14.45-5.96,28.72-12.77,42.42-21.66,6.83-4.48,13.53-9.49,19.8-15.62,6.2-6.11,12.13-13.46,16.01-22.88,1.92-4.69,3.15-9.93,3.44-15.26.18-2.66.04-5.33-.25-7.97-.15-1.3-.41-2.59-.63-3.88l-.86-3.55c-1.3-4.73-3.26-9.39-5.85-13.68-2.59-4.31-5.79-8.19-9.32-11.53-7.11-6.71-15.31-11.04-23.36-14.26-4.06-1.55-8.12-2.81-12.16-3.89-4.04-1.03-8.08-1.89-12.09-2.57-12.29-2.06-24.39-2.81-36.35-2.9h0ZM361.31,59.67c-33.71.27-69.37,21.97-78.44,62.31-3.75,19.07.42,39.79,11.73,55.73,11.02,16.13,29,27.24,48.18,30.36,11.21,1.94,22.83,1.25,33.82-1.86l6.99,12.07,38.97,67.28c.51.86,1.13,1.79,1.77,2.6,7.22,9.03,20.42,10.5,29.45,3.26,9.05-7.22,10.5-20.4,3.27-29.45l-46.01-57.5-8.71-10.88c6.7-5.01,12.66-11.11,17.48-18.06,5.65-8.19,9.79-17.47,11.93-27.27,2.13-9.81,2.41-20.14.45-30.13-1.94-9.99-6.01-19.61-11.8-28-5.84-8.32-13.45-15.48-22.14-20.77-10.88-6.62-23.77-9.8-36.96-9.69h0ZM284.02,60.75c-1.89,0-3.94.23-6.15.72-36,9.01-93.05,24.53-128.7,34.74-17.84,5.08-35.61,10.36-53.35,15.74-17.75,5.4-35.39,10.92-53.13,16.77-5.69,1.86-8.83,7.95-7.06,13.67,1.81,5.79,7.97,9.01,13.74,7.21l.1-.02c17.43-5.43,35.15-10.68,52.82-15.74,3.83-1.1,7.65-2.2,11.48-3.28l-.14.95c-.84,5.99-1.65,11.97-2.4,17.95-1.52,11.97-2.92,23.81-4.07,35.95-.25,3.02-.52,6.06-.72,9.06-.25,3.02-.47,6.04-.66,9.07-.35,6.04-.71,12.08-.98,18.14-.27,6.04-.49,12.1-.69,18.18l-.27,9.16c-.07,3.09-.18,6.04-.22,9.38v.44c0,1.37.17,2.77.5,4.17,2.28,9.23,11.61,14.88,20.86,12.62,9.25-2.28,14.9-11.61,12.63-20.86-.62-2.51-1.23-5.45-1.76-8.23-.56-2.82-1.01-5.66-1.47-8.51-.89-5.69-1.69-11.43-2.28-17.16-.61-5.74-1.15-11.49-1.45-17.23-.37-5.75-.57-11.51-.59-17.27-.07-2.87,0-5.74,0-8.61.05-2.87.19-5.77.3-8.66.22-5.79.71-11.56,1.25-17.3.62-5.74,1.37-11.46,2.36-17.11.46-2.82,1.06-5.62,1.64-8.4l.47-1.96c6.46-1.81,12.93-3.56,19.41-5.3,6.58-1.77,13.15-3.53,19.74-5.25l25.94,45.04-2.53,3.11c-8.13,10.24-15.66,20.98-22.38,32.27-3.39,5.64-6.55,11.41-9.4,17.36-1.42,2.99-2.84,5.97-4.08,9.06-1.28,3.11-2.43,6.1-3.51,9.55-.71,2.33.07,4.96,2.13,6.5,2.63,1.94,6.33,1.4,8.27-1.23l.24-.3,5.48-7.41c1.92-2.48,3.73-5.03,5.67-7.51,3.81-4.96,7.65-9.92,11.53-14.83,6.78-8.62,13.65-17.17,20.66-25.62l71.96,124.95c.35.59.72,1.2,1.13,1.76,6.73,9.38,19.8,11.54,29.2,4.81,9.38-6.73,11.54-19.8,4.81-29.2l-89.02-124.18c2.99-3.73,5.92-7.51,8.86-11.3,3.85-5.06,7.63-10.18,11.32-15.37,1.86-2.58,3.66-5.21,5.45-7.83l2.65-3.95,1.3-1.96c.41-.62.91-1.33,1.18-1.84l.51-.96c1-1.86.94-4.17-.3-6.04-1.81-2.7-5.45-3.42-8.15-1.62-.89.61-1.54,1.01-2.24,1.54-.71.49-1.38.96-2.06,1.47l-3.95,3.04c-2.57,2.06-5.08,4.17-7.51,6.35-4.88,4.32-9.54,8.81-14.08,13.42-2.11,2.18-4.19,4.35-6.24,6.56l-22.21-30.97c22.19-5.69,65.68-17.01,87.98-22.21,21.58-4.46,18.45-25.49.17-25.48h0ZM482.95,60.92c-1.09,0-2.19.17-3.29.51-5.84,1.81-9.09,8-7.27,13.84.89,2.89,1.7,6.18,2.4,9.31.76,3.17,1.32,6.4,1.91,9.6.59,3.21.99,6.43,1.4,9.65.42,3.22.71,6.45.89,9.65.19,3.21.29,6.41.29,9.57-.07,3.15-.25,6.28-.61,9.31-.37,3.02-.86,5.97-1.72,8.59-.81,2.62-1.94,4.93-3.17,6.24-.61.68-1.2,1.08-1.77,1.35-.29.14-.57.25-.93.3-.14.05-.39.09-.66.1-.27.05-.52.07-.76.07-1.97.05-3.36-.35-4.81-1.52-1.45-1.11-2.87-3.09-4-5.49-1.13-2.4-2.01-5.18-2.66-8.08-.64-2.92-1.08-5.95-1.4-9.04-.29-3.11-.37-6.26-.39-9.42-.02-3.17.17-6.36.42-9.55.15-1.59.32-3.17.52-4.74.22-1.54.46-3.22.76-4.52.25-1.08.37-2.28.29-3.44-.46-6.14-5.8-10.75-11.95-10.29-6.14.47-10.75,5.82-10.28,11.96l.04.59c.15,2.04.32,3.71.52,5.54.17,1.77.35,3.55.57,5.3.39,3.53.88,7.06,1.4,10.57.52,3.53,1.2,7.04,1.93,10.56.74,3.53,1.62,7.07,2.78,10.62,1.17,3.56,2.55,7.14,4.47,10.7,1.96,3.53,4.52,7.17,8.45,10.11,1.94,1.45,4.25,2.63,6.7,3.34,2.45.73,4.98.95,7.34.81.61-.02,1.18-.07,1.76-.15.56-.07,1.13-.15,1.82-.31,1.3-.24,2.6-.67,3.83-1.23,2.48-1.11,4.64-2.77,6.31-4.56,3.31-3.65,5.1-7.54,6.41-11.27,1.28-3.75,2.15-7.39,2.75-11.01.61-3.61,1-7.17,1.25-10.72.32-3.53.49-7.05.57-10.55.07-3.49.1-6.97.08-10.45,0-3.48-.13-6.93-.2-10.41-.09-3.46-.27-6.92-.41-10.4-.17-3.49-.34-6.85-.56-10.57l-.02-.2c-.07-.84-.22-1.69-.47-2.53-1.48-4.73-5.85-7.77-10.56-7.76h0ZM515.22,61.72c-4.54.07-8.17,3.81-8.08,8.37l1.38,81.73c0,.24.02.51.03.74.51,6.04,5.82,10.52,11.86,10.01,6.04-.51,10.51-5.8,10.01-11.85l-6.87-81.48c-.37-4.27-3.98-7.61-8.33-7.53h0ZM355.98,85.86c3.25-.05,6.49.21,9.67.79,12.76,2.21,24.18,9.4,31.32,19.83,7.29,10.31,10.06,23.52,7.7,36.25-2.11,11.88-8.62,23.02-18.23,30.99l-25.23-31.53c-2.87-3.59-8.01-4.64-12.1-2.28-4.52,2.61-6.06,8.39-3.44,12.91l18.44,31.85c-5.81,1.28-11.88,1.6-17.84.81-6.68-.93-13.23-3.09-19-6.58-5.75-3.51-10.75-8.18-14.67-13.7-3.83-5.6-6.48-11.9-7.76-18.52-1.27-6.63-1.03-13.52.44-20.12,1.49-6.6,4.35-12.86,8.22-18.35,3.9-5.5,8.84-10.17,14.46-13.84,8.44-5.47,18.26-8.37,28.01-8.52h0ZM266.96,130.99c-4.54.02-8.22,3.73-8.19,8.29l.24,39.52c.02.47.05,1.03.12,1.52.88,6.01,6.46,10.18,12.47,9.28,6.01-.88,10.16-6.45,9.28-12.45l-5.7-39.12c-.59-4-4.05-7.07-8.22-7.04h0ZM167.42,132.83c-.8-.04-1.59-.04-2.38,0-6.31.32-12.08,3.1-16.3,7.19-4.22,4.08-7.04,9.58-7.68,15.48-.32,2.94-.07,5.96.78,8.86.84,2.9,2.4,5.62,4.39,7.88,4.07,4.59,10.18,6.97,15.96,6.92,5.82.02,11.48-2.13,15.98-5.72,4.47-3.59,7.95-8.83,9.11-14.92.57-3.04.57-6.3-.17-9.48-.74-3.19-2.26-6.32-4.42-8.9-2.13-2.6-5-4.67-8.14-5.8-2.33-.9-4.74-1.39-7.13-1.51h0ZM164.27,147.25c.33,0,.66,0,.99.03,1.3.08,2.5.42,3.49.94.98.56,1.82,1.13,2.63,1.87,1.57,1.47,2.53,3.75,2.43,6.5-.08,2.72-1.28,5.67-3.48,7.95-2.18,2.28-5.23,3.75-8.32,3.9-3.09.15-6.01-1.03-7.81-3.22-1.86-2.14-2.51-5.18-1.86-8.12.61-2.95,2.47-5.62,4.91-7.41,2.16-1.56,4.67-2.39,7.01-2.44h0Z"/>
</svg>